<?xml version="1.0" encoding="utf-8"?>
<!-- Generator: Adobe Illustrator 16.0.0, SVG Export Plug-In . SVG Version: 6.00 Build 0)  -->
<!DOCTYPE svg PUBLIC "-//W3C//DTD SVG 1.1//EN" "http://www.w3.org/Graphics/SVG/1.1/DTD/svg11.dtd">
<svg version="1.1" id="Layer_1" xmlns="http://www.w3.org/2000/svg" xmlns:xlink="http://www.w3.org/1999/xlink" x="0px" y="0px"
	 width="300px" height="200px" viewBox="0 0 300 200" enable-background="new 0 0 300 200" xml:space="preserve">
<g>
	<circle fill="#F1EFF7" cx="211.635" cy="59.404" r="27.087"/>
	<path fill="#F1EFF7" d="M256.412,179.628c5.738-4.389,10.799-9.517,14.571-15.675c7.665-12.509,8.563-30.13-1.276-41.012
		c-10.929-12.088-29.701-11.762-45.917-10.152s-34.679,2.871-46.612-8.227c-9.73-9.047-11.805-23.476-12.801-36.725
		c-0.996-13.249-1.842-27.496-10.106-37.899c-11.124-14.003-33.509-15.694-48.577-6.061S82.763,51.987,82.584,69.87
		c-0.076,7.652,0.386,16.855-5.935,21.17c-5.038,3.44-11.957,1.75-17.37-1.064c-5.412-2.813-10.516-6.691-16.562-7.507
		c-8.048-1.085-16.066,3.796-20.533,10.578c-4.468,6.781-5.905,15.131-6.152,23.248c-0.699,23.036,8.074,46.03,23.232,63.333
		H256.412z"/>
</g>
<g>
	<g>
		
			<line fill="none" stroke="#D1C4E1" stroke-width="1.0481" stroke-miterlimit="10" x1="17.724" y1="179.346" x2="272.13" y2="179.346"/>
		<path fill="#9197CB" d="M211.7,176.673h-74.534c-2.751,0-4.982,2.231-4.982,4.982H211.7V176.673z"/>
		<path fill="#BBC1E2" d="M235.868,143.267h-51.591c-1.431,0-2.725,0.854-3.286,2.171l-14.228,33.333
			c-0.584,1.367,0.42,2.885,1.905,2.885h53.289c1.432,0,2.726-0.854,3.287-2.17l13.561-31.771
			C239.705,145.607,238.159,143.267,235.868,143.267z"/>
		<path fill="#FFFFFF" d="M209.155,163.19c-0.786,3.201-4.019,5.796-7.219,5.796c-3.201,0-5.159-2.595-4.373-5.796
			c0.786-3.2,4.018-5.795,7.219-5.795S209.941,159.99,209.155,163.19z"/>
	</g>
	
		<line fill="none" stroke="#D1C4E1" stroke-width="1.0481" stroke-miterlimit="10" x1="132.045" y1="184.196" x2="222.585" y2="184.196"/>
	
		<line fill="none" stroke="#D1C4E1" stroke-width="1.0481" stroke-miterlimit="10" x1="170.71" y1="186.774" x2="218.718" y2="186.774"/>
</g>
<g>
	<g>
		<path fill="#FFFFFF" stroke="#B8ABD4" stroke-width="1.0481" stroke-miterlimit="10" d="M255.851,62.293H137.711
			c-5.339,0-9.666,4.327-9.666,9.666v50.263c0,5.339,4.327,9.666,9.666,9.666h45.446l8.141,8.14l8.14-8.14h56.413
			c5.339,0,9.666-4.327,9.666-9.666V71.959C265.517,66.62,261.189,62.293,255.851,62.293z"/>
		<g>
			<g>
				<circle fill="#DBDFF0" cx="150.143" cy="82.522" r="10.096"/>
				<polygon fill="#FAAF3C" points="171.184,73.353 173.036,78.909 178.894,78.864 174.182,82.343 176.034,87.899 171.27,84.493 
					166.558,87.972 168.324,82.389 163.56,78.982 169.417,78.937 				"/>
				<polygon fill="#FAAF3C" points="189.839,73.353 191.692,78.909 197.549,78.864 192.837,82.343 194.689,87.899 189.925,84.493 
					185.213,87.972 186.98,82.389 182.215,78.982 188.071,78.937 				"/>
				<polygon fill="#FAAF3C" points="208.494,73.353 210.348,78.909 216.204,78.864 211.492,82.343 213.345,87.899 208.58,84.493 
					203.868,87.972 205.636,82.389 200.871,78.982 206.728,78.937 				"/>
				<polygon fill="#E9EBF6" points="227.149,73.353 229.003,78.909 234.859,78.864 230.147,82.343 232.001,87.899 227.235,84.493 
					222.523,87.972 224.291,82.389 219.525,78.982 225.383,78.937 				"/>
				<polygon fill="#E9EBF6" points="245.806,73.353 247.658,78.909 253.515,78.864 248.803,82.343 250.656,87.899 245.892,84.493 
					241.18,87.972 242.946,82.389 238.181,78.982 244.038,78.937 				"/>
			</g>
			<g>
				<g>
					<rect x="139.512" y="97.124" fill="#B8ABD4" width="8.917" height="2.383"/>
					<rect x="150.63" y="97.124" fill="#B8ABD4" width="13.37" height="2.383"/>
				</g>
				<g>
					<g>
						<rect x="139.512" y="104.202" fill="#E7DEEE" width="19.232" height="2.383"/>
						<rect x="166.581" y="104.202" fill="#E7DEEE" width="44.998" height="2.383"/>
						<rect x="219.416" y="104.202" fill="#E7DEEE" width="34.634" height="2.383"/>
					</g>
					<g>
						<rect x="139.512" y="111.787" fill="#E7DEEE" width="42.996" height="2.382"/>
						<rect x="232.562" y="111.787" fill="#E7DEEE" width="21.488" height="2.382"/>
						<rect x="189.839" y="111.787" fill="#E7DEEE" width="37.666" height="2.382"/>
					</g>
					<g>
						<rect x="139.512" y="119.37" fill="#E7DEEE" width="54.876" height="2.383"/>
					</g>
				</g>
			</g>
		</g>
	</g>
	<g>
		<path fill="#FFFFFF" stroke="#B8ABD4" stroke-width="1.0481" stroke-miterlimit="10" d="M279.597,24.068h-77.112
			c-3.483,0-6.309,2.825-6.309,6.309v15.431c0,3.484,2.825,6.309,6.309,6.309h77.112c3.484,0,6.309-2.825,6.309-6.309V30.377
			C285.905,26.894,283.081,24.068,279.597,24.068z"/>
		<polygon fill="#FAAF3C" points="225.834,33.321 227.043,36.948 230.865,36.918 227.79,39.189 228.999,42.816 225.89,40.593 
			222.814,42.864 223.968,39.219 220.856,36.996 224.68,36.966 		"/>
		<polygon fill="#FAAF3C" points="238.011,33.321 239.219,36.948 243.043,36.918 239.967,39.189 241.177,42.816 238.065,40.593 
			234.991,42.864 236.144,39.219 233.033,36.996 236.856,36.966 		"/>
		<polygon fill="#FAAF3C" points="250.187,33.321 251.396,36.948 255.22,36.918 252.144,39.189 253.353,42.816 250.243,40.593 
			247.167,42.864 248.32,39.219 245.211,36.996 249.033,36.966 		"/>
		<polygon fill="#FAAF3C" points="262.364,33.321 263.573,36.948 267.396,36.918 264.32,39.189 265.529,42.816 262.419,40.593 
			259.345,42.864 260.498,39.219 257.387,36.996 261.21,36.966 		"/>
		<polygon fill="#E9EBF6" points="274.54,33.321 275.749,36.948 279.572,36.918 276.497,39.189 277.707,42.816 274.596,40.593 
			271.521,42.864 272.673,39.219 269.563,36.996 273.387,36.966 		"/>
		<g>
			<circle fill="#DBDFF0" cx="210.106" cy="36.85" r="5.627"/>
			<g>
				<rect x="203.328" y="43.634" fill="#B8ABD4" width="4.97" height="1.328"/>
				<rect x="209.524" y="43.634" fill="#B8ABD4" width="7.45" height="1.328"/>
			</g>
		</g>
	</g>
	<g>
		<path fill="#FFFFFF" stroke="#B8ABD4" stroke-width="1.0481" stroke-miterlimit="10" d="M81.382,49.728H28.435
			c-2.392,0-4.332,1.939-4.332,4.332v10.595c0,2.392,1.94,4.333,4.332,4.333h52.948c2.393,0,4.333-1.94,4.333-4.333V54.06
			C85.715,51.667,83.775,49.728,81.382,49.728z"/>
		<polygon fill="#FAAF3C" points="44.467,56.081 45.297,58.571 47.922,58.551 45.811,60.11 46.641,62.601 44.505,61.074 
			42.394,62.633 43.186,60.13 41.05,58.604 43.675,58.583 		"/>
		<polygon fill="#FAAF3C" points="52.828,56.081 53.658,58.571 56.283,58.551 54.172,60.11 55.002,62.601 52.866,61.074 
			50.754,62.633 51.546,60.13 49.411,58.604 52.036,58.583 		"/>
		<polygon fill="#FAAF3C" points="61.189,56.081 62.019,58.571 64.645,58.551 62.533,60.11 63.363,62.601 61.227,61.074 
			59.115,62.633 59.907,60.13 57.772,58.604 60.397,58.583 		"/>
		<polygon fill="#FAAF3C" points="69.55,56.081 70.38,58.571 73.005,58.551 70.894,60.11 71.724,62.601 69.588,61.074 
			67.477,62.633 68.268,60.13 66.133,58.604 68.758,58.583 		"/>
		<polygon fill="#E9EBF6" points="77.911,56.081 78.741,58.571 81.366,58.551 79.254,60.11 80.085,62.601 77.949,61.074 
			75.837,62.633 76.629,60.13 74.494,58.604 77.119,58.583 		"/>
		<g>
			<circle fill="#DBDFF0" cx="33.668" cy="58.503" r="3.864"/>
			<g>
				<rect x="29.014" y="63.162" fill="#B8ABD4" width="3.413" height="0.912"/>
				<rect x="33.269" y="63.162" fill="#B8ABD4" width="5.116" height="0.912"/>
			</g>
		</g>
	</g>
</g>
<g>
	<g>
		<circle fill="#F27AA8" cx="260.348" cy="152.348" r="11.756"/>
		<path fill="#FFFFFF" d="M263.875,147.914c-1.953,0-3.526,1.584-3.526,3.536c0-1.952-1.572-3.536-3.526-3.536
			s-3.538,1.584-3.538,3.536c0,4.409,7.064,8.104,7.064,8.104s7.064-3.694,7.064-8.104
			C267.413,149.498,265.829,147.914,263.875,147.914z"/>
	</g>
	<g>
		<circle fill="#F27AA8" cx="40.107" cy="105.004" r="11.757"/>
		<path fill="#FFFFFF" d="M43.633,100.57c-1.954,0-3.526,1.584-3.526,3.538c0-1.954-1.572-3.538-3.526-3.538
			c-1.954,0-3.537,1.584-3.537,3.538c0,4.407,7.063,8.103,7.063,8.103s7.064-3.695,7.064-8.103
			C47.171,102.154,45.587,100.57,43.633,100.57z"/>
	</g>
	<g>
		<polygon fill="#B8ABD4" points="104.252,22.374 107.105,31.155 116.339,31.155 108.869,36.582 111.723,45.363 104.252,39.937 
			96.782,45.363 99.636,36.582 92.166,31.155 101.399,31.155 		"/>
		<polygon fill="#B8ABD4" points="118.344,43.419 120.522,50.126 127.574,50.126 121.869,54.271 124.048,60.977 118.344,56.832 
			112.639,60.977 114.817,54.271 109.113,50.126 116.165,50.126 		"/>
		<polygon fill="#B8ABD4" points="109.131,63.762 110.398,67.661 114.499,67.661 111.182,70.071 112.448,73.97 109.131,71.561 
			105.814,73.97 107.081,70.071 103.764,67.661 107.864,67.661 		"/>
	</g>
	<g>
		<circle fill="#B8ABD4" cx="272.814" cy="99.164" r="15.192"/>
		<polygon fill="#FFFFFF" points="265.104,91.682 265.104,96.941 275.762,99.392 265.104,101.841 265.104,107.101 284.832,99.392 		
			"/>
	</g>
	<g>
		<path fill="#B8ABD4" d="M182.895,29.296c0.004,12.274-9.976,22.263-22.16,22.237c-12.376-0.026-20.97-9.492-22.129-19.477
			c-0.768-6.613,1.003-12.494,5.354-17.481c4.388-5.028,10.055-7.606,16.735-7.595C172.814,7.002,182.967,16.825,182.895,29.296z"/>
		<g>
			<path fill="#FDFEFF" d="M163.782,37.615c-1.961,0-3.922,0.002-5.884-0.001c-0.705-0.001-0.963-0.228-0.958-0.933
				c0.024-3.059-0.14-6.122,0.086-9.175c0.145-1.963,0.922-3.722,2.134-5.279c0.822-1.054,1.68-2.075,2.639-3.007
				c0.31-0.301,0.467-0.642,0.459-1.079c-0.008-0.524,0.043-1.049,0.03-1.572c-0.016-0.654,0.199-1.197,0.813-1.444
				c0.64-0.258,1.267-0.126,1.784,0.359c0.506,0.472,0.702,1.104,0.858,1.747c0.401,1.649,0.09,3.215-0.589,4.733
				c-0.227,0.509-0.434,1.027-0.688,1.521c-0.166,0.324-0.037,0.438,0.251,0.483c0.148,0.023,0.303,0.013,0.455,0.013
				c1.758-0.004,3.516-0.009,5.274-0.011c0.956-0.001,1.61,0.456,1.838,1.277c0.254,0.919-0.114,1.973-0.887,2.386
				c-0.347,0.186-0.337,0.264-0.033,0.477c0.642,0.451,1.071,1.023,0.939,1.876c-0.099,0.645-0.419,1.09-1.053,1.293
				c-0.12,0.038-0.304,0.027-0.328,0.185c-0.024,0.164,0.168,0.19,0.269,0.265c0.844,0.629,0.957,2.308-0.283,2.822
				c-0.238,0.098-0.344,0.156-0.093,0.398c0.546,0.522,0.551,1.19,0.296,1.832c-0.246,0.622-0.805,0.813-1.448,0.81
				c-1.961-0.007-3.922-0.002-5.883-0.002C163.782,37.597,163.782,37.606,163.782,37.615z"/>
			<path fill="#FDFEFF" d="M154.57,39.364c-1.622,0.005-3.243,0.007-4.865,0.017c-0.483,0.002-0.707-0.268-0.758-0.708
				c-0.027-0.234-0.012-0.473-0.012-0.709c0.001-3.395,0.001-6.792,0.005-10.187c0.001-0.837,0.211-1.042,1.056-1.042
				c1.454-0.003,2.905-0.005,4.359,0c0.582,0.002,0.881,0.256,0.881,0.812c0.005,3.564-0.008,7.127-0.016,10.691
				c0,0.016-0.009,0.032-0.015,0.049c-0.091,0.028-0.08,0.061-0.003,0.096c0.027,0.384,0.017,0.75-0.426,0.914
				c-0.013-0.106-0.049-0.225-0.174-0.188C154.459,39.153,154.59,39.278,154.57,39.364z"/>
		</g>
	</g>
</g>
<g>
	<defs>
		<rect id="SVGID_1_" x="17.55" y="78.057" width="156.998" height="101.6"/>
	</defs>
	<clipPath id="SVGID_2_">
		<use xlink:href="#SVGID_1_"  overflow="visible"/>
	</clipPath>
	<g clip-path="url(#SVGID_2_)">
		<path fill="#462929" d="M102.89,93.873c0.621,3.125,0.45,6.346,0.688,9.521c0.238,3.178,0.964,6.476,3.052,8.881
			c1.771,2.04,4.422,3.324,5.685,5.712c0.96,1.815,0.943,4.05,0.228,5.975c-0.714,1.924-2.072,3.56-3.647,4.876
			c-5.424,4.532-13.544,5.261-19.966,2.307c-6.42-2.955-11.037-9.25-12.554-16.154c-1.518-6.902-0.093-14.289,3.311-20.483
			c1.923-3.499,4.568-6.747,8.134-8.541c2.949-1.484,7.38-2.044,10.36-0.25C100.735,87.254,102.345,91.126,102.89,93.873z"/>
		<g>
			<g>
				<g>
					<path fill="#925147" d="M154,164.859c0,0-1.152,2.48-4.085,1l-1.919,3.626l4.785,2.534l3.477-6.566l-1.375-6.467
						c0,0-1.299,0.512-1.263,1.9C153.654,162.277,154,164.859,154,164.859z"/>
					<path fill="#99503A" d="M158.375,173.339c0.023-1.51-0.789-2.922-2.144-3.639l-5.013-2.653l-1.036,1.956L158.375,173.339z"/>
					<path fill="#AC6A56" d="M159.779,175.585c0.023-1.51-0.789-2.922-2.143-3.639l-5.754-3.045l-1.036,1.955L159.779,175.585z"/>
					<polygon fill="#FAAF3C" points="153.041,152.823 154.713,157.835 159.996,157.794 155.745,160.932 157.416,165.943 
						153.118,162.872 148.869,166.01 150.462,160.973 146.165,157.9 151.447,157.859 					"/>
					<path fill="#B57A68" d="M149.812,165.813l0.244-1.756l2.029-1.601c0.614-0.485,0.975-1.224,0.979-2.007v-0.198l-6.188,2.207
						l-2.698,3.193l-1.739,3.287l9.353,4.95l0.636-1.2c1.254-2.369,0.351-5.307-2.02-6.562L149.812,165.813z"/>
					<path fill="#B57A68" d="M158.36,177.365c0.023-1.509-0.789-2.922-2.143-3.638l-5.754-3.046l-1.035,1.957L158.36,177.365z"/>
					
						<path fill="none" stroke="#A25647" stroke-width="1.8647" stroke-linecap="round" stroke-linejoin="round" stroke-miterlimit="10" d="
						M149.73,165.637c-0.587,0.902-1.337,1.699-2.204,2.339"/>
				</g>
				<polygon fill="#B57A68" points="116.279,165.603 144.76,166.064 144.649,169.973 110.757,175.148 				"/>
			</g>
			<path fill="#393857" d="M89.911,129.022h8.355c3.942,0,7.447,2.506,8.723,6.235l12.14,35.504c0,0-0.845,6.568-5.981,7.172
				c-1.929,0.227-3.785-0.831-4.691-2.549l-18.546-35.188V129.022z"/>
			<g>
				<path fill="#393857" d="M111.081,165.021l27.481,0.927l-9.047,11.425l-17.364,1.038c-2.295,0.138-4.056-2.009-3.472-4.233
					l1.136-4.33L111.081,165.021z"/>
				<path fill="none" stroke="#484564" stroke-width="1.8647" stroke-linecap="round" stroke-miterlimit="10" d="M116.279,165.603
					c-2.247,1.359-4.776,3.446-5.942,5.798"/>
				<path fill="none" stroke="#484564" stroke-width="1.8647" stroke-linecap="round" stroke-miterlimit="10" d="M116.279,165.603
					c-2.912,0.116-6.503,0.505-8.63,2.497"/>
			</g>
		</g>
		<g>
			<path fill="#FFFFFF" d="M96.139,206.096c-4.473,0.459-9.128,0.341-13.604-0.088c-7.142-0.685-13.448-4.063-19.609-7.485
				c-0.89-0.494-1.787-1.002-2.683-1.519c3.248-5.142,7.382-10.445,12.136-13.809h23.739l7.692,21.034
				C101.43,205.345,98.657,205.838,96.139,206.096z"/>
			<path fill="#484564" d="M68.628,182.089l-6.893-47.526l3.461-5.604h31.577l8.679,23.38c0,0-7.256,22.493-7.256,30.837
				l7.989,23.196L96.752,210l-7.263-22.289l-7.981,22.131l-24.852-10.34L68.628,182.089z"/>
			<polygon fill="#393857" points="61.735,134.563 65.24,128.888 69.76,128.888 71.092,140.197 66.733,169.021 			"/>
			<polygon fill="#FFFFFF" points="95.303,129.116 95.303,155.861 72.9,129.116 			"/>
			<path fill="#B57A68" d="M81.571,135.549c-1.574-0.375-3.104-0.902-4.583-1.553l-4.279-5.108h22.594v3.925
				C92.137,136.548,86.151,136.639,81.571,135.549z"/>
			<polygon fill="#626080" points="72.709,128.888 72.709,145.595 82.29,145.595 76.968,156.828 95.994,156.69 			"/>
			<polygon fill="#626080" points="95.303,128.888 96.747,128.888 107.945,145.595 99.101,145.595 108.646,156.828 95.994,156.828 
				95.434,156.828 			"/>
			<path fill="none" stroke="#393857" stroke-width="1.8647" stroke-miterlimit="10" d="M95.407,156.801
				c-2.158,10.191-3.739,20.508-5.896,30.697"/>
			<path fill="none" stroke="#393857" stroke-width="1.8647" stroke-miterlimit="10" d="M100.107,189.624
				c-1.847,0.616-3.799,0.917-5.746,0.887"/>
			<path fill="none" stroke="#393857" stroke-width="1.8647" stroke-miterlimit="10" d="M79.241,190.261
				c-3.546-0.185-7.052-1.096-10.239-2.661"/>
		</g>
		<path fill="#484564" d="M71.092,128.882h-8.355c-3.941,0-7.447,2.507-8.723,6.236l-12.14,35.503c0,0,0.139,2.629,1.359,4.875
			c1.938,3.567,6.74,4.478,8.65,0.896l19.209-36.334V128.882z"/>
		<g>
			<path fill="#925147" d="M82.711,167.034l2.293,1.985l5.487,1.257l-0.027-0.197c-0.108-0.774-0.565-1.459-1.239-1.856
				l-1.375-1.104l0.396-1.521l2.31-1.918l-2.8-2.422l-5.979,3.936L82.711,167.034z"/>
			<polygon fill="#FAAF3C" points="88.055,163.133 91.876,166.779 96.526,164.272 94.238,169.034 98.06,172.682 92.824,171.977 
				90.536,176.739 89.588,171.542 84.353,170.838 89.003,168.33 			"/>
			<path fill="#925147" d="M91.501,165.067c0,0-1.178-1.839-3.341-0.354l-1.908-2.664l3.902-2.726l3.454,4.822l-0.773,4.428
				c0,0-1.083-0.267-1.204-1.369C91.512,166.102,91.501,165.067,91.501,165.067z"/>
			<path fill="#B57A68" d="M82.957,167.45l-2.278-3.055l8.47-6.547l0.791,1.104c1.562,2.18,1.485,4.142,0.141,5.2l-1.835,1.446
				L82.957,167.45z"/>
			<path fill="#B57A68" d="M95.402,160.671c0.247-0.061,0.451,0.188,0.351,0.422c-0.402,0.937-1.219,1.654-2.242,1.906l-5.168,1.271
				l-0.432-1.758L95.402,160.671z"/>
			<path fill="#B57A68" d="M94.699,153.363c0.244-0.195,0.602-0.024,0.612,0.288c0.04,1.256-0.498,2.484-1.509,3.298l-5.11,4.114
				l-1.399-1.736L94.699,153.363z"/>
			<path fill="#B57A68" d="M95.785,156.965c0.28-0.14,0.593,0.104,0.536,0.413c-0.23,1.234-1.019,2.318-2.181,2.898l-5.117,2.546
				l-0.994-1.996L95.785,156.965z"/>
		</g>
		<g>
			<path fill="#484564" d="M50.83,163.437l28.03-0.163l-8.724,12.164l-21.722,3.268c-2.809,0.423-5.191-2.039-4.693-4.836
				C44.519,169.387,46.4,163.802,50.83,163.437z"/>
			
				<line fill="none" stroke="#393857" stroke-width="1.8647" stroke-linecap="round" stroke-miterlimit="10" x1="58.441" y1="163.417" x2="49.264" y2="163.604"/>
			
				<line fill="none" stroke="#393857" stroke-width="1.8647" stroke-linecap="round" stroke-miterlimit="10" x1="58.442" y1="163.396" x2="48.866" y2="165.948"/>
		</g>
		<g>
			<path fill="#B57A68" d="M78.22,106.531l0.989,24.654c0.04,0.992,0.855,1.775,1.848,1.775h12.137c1.511,0,2.241-1.828,1.161-2.886
				c-2.327-2.275-4.687-6.18-4.687-12.661v-10.389L78.22,106.531z"/>
			<path fill="#925147" d="M83.821,106.773l5.848,0.252v10.389c0,2.85,0.458,5.199,1.167,7.133
				C84.115,122.262,81.848,113.258,83.821,106.773z"/>
		</g>
		<g>
			<g>
				<g>
					<path fill="#B57A68" d="M81.216,115.767c-0.82-0.554-1.623-1.226-2.391-1.973c-3.897-3.786-6.222-8.91-6.768-14.315
						c-0.508-5.027,0.5-10.028,4.673-13.346c4.467-3.552,11.432-3.863,16.462-1.398c4.812,2.357,7.458,6.84,8.442,11.975
						c0.489,2.547,0.626,5.148,0.661,7.738c0.065,4.847-0.687,14.158-6.259,15.32C90.02,121.006,85.629,118.746,81.216,115.767z"/>
				</g>
				<path fill="#462929" d="M99.88,94.56c1.6,2.286,2.057,5.155,2.472,7.915c0.997-3.538,0.999-7.352,0.004-10.891
					c-0.465-1.655-1.163-3.281-2.311-4.562c-1.148-1.281-2.795-2.185-4.515-2.155c-2.688,0.045-5.921,3.749-3.146,5.987
					c0.848,0.684,2.291,0.543,3.296,0.813C97.377,92.121,98.867,93.111,99.88,94.56z"/>
				<path fill="#462929" d="M93.441,96.597c-1.817,1.648-4.061,2.739-6.458,3.246c-2.457,0.519-5.434,0.376-7.28,2.341
					c-5.611,5.976-0.882,13.152,1.977,19.18c1.44,3.033,2.931,6.557,2.149,9.977c-1,4.376-5.266,6.455-9.46,6.473
					c-6.825,0.028-12.114-5.043-13.477-11.562c-0.706-3.375-0.221-6.743,1.089-9.901c1.206-2.908,3.147-5.475,4.114-8.487
					c1.546-4.819-0.644-9.899,0.92-14.798c3.107-9.736,18.075-19.294,27.2-11.359C99.48,86.284,97.767,92.672,93.441,96.597z"/>
				<path fill="#462929" d="M80.062,98.742c-1.227,1.166-2.029,2.805-2.203,4.488c-0.2,1.926,0.321,3.847,1.278,5.543l1.249-0.219
					c0.131-2.189,0.684-4.375,1.374-6.428c0.316-0.943,0.695-1.88,1.146-2.781C82.533,97.617,81.172,97.688,80.062,98.742z"/>
			</g>
			<g>
				<path fill="none" stroke="#925147" stroke-width="1.2164" stroke-linecap="round" stroke-miterlimit="10" d="M96.574,103.639
					c0.362,1.62,1.021,3.172,1.935,4.556c0.319,0.485,0.688,1.032,0.552,1.597c-0.127,0.53-0.652,0.853-1.13,1.116"/>
				<g>
					<circle fill="#F3797A" cx="96.058" cy="113.92" r="1.382"/>
					<path fill="none" stroke="#925147" stroke-width="1.2164" stroke-linecap="round" stroke-miterlimit="10" d="M98.16,113.14
						c-1.437,0.854-3.285,0.978-4.822,0.317"/>
				</g>
				<g>
					<path fill="none" stroke="#462929" stroke-width="1.8231" stroke-linecap="round" stroke-miterlimit="10" d="M101.429,99.201
						c-1.239-0.692-2.533-0.523-3.501,0.459"/>
				</g>
				<g>
					<path fill="none" stroke="#462929" stroke-width="1.8231" stroke-linecap="round" stroke-miterlimit="10" d="M91.762,100.459
						c-1.733-0.553-3.581-0.249-5.04,0.828"/>
				</g>
				<circle fill="#462929" cx="90.237" cy="104.509" r="1.233"/>
				<circle fill="#462929" cx="99.621" cy="103.429" r="1.233"/>
			</g>
			<g>
				<path fill="#B57A68" d="M78.852,105.818c-0.842-0.715-2.051-1.104-3.077-0.691c-0.825,0.332-1.401,1.138-1.601,2.004
					c-0.2,0.867-0.06,1.783,0.238,2.621c0.95,2.67,3.61,4.639,6.44,4.767c0.586,0.026,0.264-4.661,0.177-5.108
					C80.771,108.072,79.886,106.697,78.852,105.818z"/>
				<circle fill="#FFFFFF" cx="78.83" cy="113.476" r="1.218"/>
				<path fill="none" stroke="#925147" stroke-width="1.2164" stroke-linecap="round" stroke-miterlimit="10" d="M75.988,107.021
					c0.483-0.408,1.209-0.458,1.792-0.209c0.583,0.25,1.026,0.76,1.297,1.332c0.272,0.572,0.387,1.205,0.455,1.835
					c-0.311-0.294-0.835-0.328-1.181-0.077c-0.346,0.252-0.476,0.76-0.293,1.147c0.183,0.386,0.659,0.608,1.073,0.499"/>
			</g>
		</g>
	</g>
</g>
</svg>
